<svg width="55" height="53" viewBox="0 0 55 53" fill="none" xmlns="http://www.w3.org/2000/svg">
<path d="M45.7676 43.7332H9.32577C5.55859 43.7332 2.49292 40.79 2.49292 37.1732V15.3066C2.49292 11.6898 5.55859 8.74658 9.32577 8.74658H45.7676C49.5348 8.74658 52.6005 11.6898 52.6005 15.3066V37.1732C52.6005 40.79 49.5348 43.7332 45.7676 43.7332ZM9.32577 13.1199C8.0708 13.1199 7.04815 14.1017 7.04815 15.3066V37.1732C7.04815 38.3781 8.0708 39.3599 9.32577 39.3599H45.7676C47.0226 39.3599 48.0452 38.3781 48.0452 37.1732V15.3066C48.0452 14.1017 47.0226 13.1199 45.7676 13.1199H9.32577ZM22.9915 32.7999H13.881C13.2769 32.7999 12.6976 32.5695 12.2705 32.1595C11.8433 31.7494 11.6034 31.1932 11.6034 30.6132C11.6034 30.0333 11.8433 29.4771 12.2705 29.067C12.6976 28.657 13.2769 28.4266 13.881 28.4266H22.9915C23.5955 28.4266 24.1748 28.657 24.602 29.067C25.0291 29.4771 25.2691 30.0333 25.2691 30.6132C25.2691 31.1932 25.0291 31.7494 24.602 32.1595C24.1748 32.5695 23.5955 32.7999 22.9915 32.7999ZM22.9915 24.0532H13.881C13.2769 24.0532 12.6976 23.8229 12.2705 23.4128C11.8433 23.0027 11.6034 22.4465 11.6034 21.8666C11.6034 21.2866 11.8433 20.7305 12.2705 20.3204C12.6976 19.9103 13.2769 19.6799 13.881 19.6799H22.9915C23.5955 19.6799 24.1748 19.9103 24.602 20.3204C25.0291 20.7305 25.2691 21.2866 25.2691 21.8666C25.2691 22.4465 25.0291 23.0027 24.602 23.4128C24.1748 23.8229 23.5955 24.0532 22.9915 24.0532Z" fill="#167FFC"/>
<path d="M36.6568 27.3331C39.1726 27.3331 41.212 25.3751 41.212 22.9598C41.212 20.5444 39.1726 18.5864 36.6568 18.5864C34.141 18.5864 32.1016 20.5444 32.1016 22.9598C32.1016 25.3751 34.141 27.3331 36.6568 27.3331Z" fill="#167FFC"/>
<path d="M36.6569 29.2051C33.0993 29.2051 30.9629 30.7685 30.9629 32.3298C30.9629 33.1105 33.0993 33.8933 36.6569 33.8933C39.9959 33.8933 42.351 33.1126 42.351 32.3298C42.351 30.7685 40.1189 29.2051 36.6569 29.2051Z" fill="#167FFC"/>
</svg>
