<svg width="40" height="47" viewBox="0 0 40 47" fill="none" xmlns="http://www.w3.org/2000/svg">
<path d="M39.419 14.778C37.2933 6.17708 29.3975 0.200195 20.2871 0.200195C9.35451 0.200195 0.547729 8.65531 0.547729 19.1513C0.547729 28.7612 8.11079 36.727 17.8418 37.8691C18.3627 37.9303 18.7687 38.363 18.7687 38.8876V45.2455C18.7687 46.1202 19.376 46.7033 20.2871 46.7033C21.1981 46.7033 21.8055 46.1202 21.8055 45.2455V29.7931V24.8255C21.8055 24.5532 21.9165 24.2927 22.1129 24.1041L28.942 17.5478C29.5494 16.9646 29.5494 16.09 28.942 15.5069C28.3346 14.9237 27.4236 14.9237 26.8162 15.5069L23.5087 18.7785C22.8772 19.4032 21.8055 18.9559 21.8055 18.0676V16.5162C21.8055 16.2439 21.6945 15.9834 21.498 15.7948L16.7947 11.2793C16.1874 10.6962 15.2763 10.6962 14.6689 11.2793C14.0616 11.8624 14.0616 12.7371 14.6689 13.3202L18.4612 16.961C18.6576 17.1496 18.7687 17.4101 18.7687 17.6824V23.9481C18.7687 24.8292 17.7117 25.2797 17.0761 24.6694L12.9987 20.7549C12.3913 20.1717 11.4803 20.1717 10.8729 20.7549C10.2656 21.338 10.2656 22.2126 10.8729 22.7958L18.4612 30.081C18.6576 30.2696 18.7687 30.5301 18.7687 30.8024V33.9517C18.7687 34.5377 18.2656 35.0006 17.686 34.914C9.70527 33.7223 3.58455 27.1046 3.58455 19.1513C3.58455 10.2589 11.0248 3.11575 20.2871 3.11575C29.5494 3.11575 36.9896 10.2589 36.9896 19.1513C36.9896 26.0515 32.3139 32.1355 25.5629 34.381C25.1394 34.5219 24.8423 34.9115 24.8423 35.3579V36.4051C24.8423 37.0491 25.4439 37.5257 26.0612 37.342C35.9643 34.3947 41.9001 24.5863 39.419 14.778Z" fill="#167FFC"/>
<path d="M39.419 14.778C37.2933 6.17708 29.3975 0.200195 20.2871 0.200195C9.35451 0.200195 0.547729 8.65531 0.547729 19.1513C0.547729 28.7612 8.11079 36.727 17.8418 37.8691C18.3627 37.9303 18.7687 38.363 18.7687 38.8876V45.2455C18.7687 46.1202 19.376 46.7033 20.2871 46.7033C21.1981 46.7033 21.8055 46.1202 21.8055 45.2455V29.7931V24.8255C21.8055 24.5532 21.9165 24.2927 22.1129 24.1041L28.942 17.5478C29.5494 16.9646 29.5494 16.09 28.942 15.5069C28.3346 14.9237 27.4236 14.9237 26.8162 15.5069L23.5087 18.7785C22.8772 19.4032 21.8055 18.9559 21.8055 18.0676V16.5162C21.8055 16.2439 21.6945 15.9834 21.498 15.7948L16.7947 11.2793C16.1874 10.6962 15.2763 10.6962 14.6689 11.2793C14.0616 11.8624 14.0616 12.7371 14.6689 13.3202L18.4612 16.961C18.6576 17.1496 18.7687 17.4101 18.7687 17.6824V23.9481C18.7687 24.8292 17.7117 25.2797 17.0761 24.6694L12.9987 20.7549C12.3913 20.1717 11.4803 20.1717 10.8729 20.7549C10.2656 21.338 10.2656 22.2126 10.8729 22.7958L18.4612 30.081C18.6576 30.2696 18.7687 30.5301 18.7687 30.8024V33.9517C18.7687 34.5377 18.2656 35.0006 17.686 34.914C9.70527 33.7223 3.58455 27.1046 3.58455 19.1513C3.58455 10.2589 11.0248 3.11575 20.2871 3.11575C29.5494 3.11575 36.9896 10.2589 36.9896 19.1513C36.9896 26.0515 32.3139 32.1355 25.5629 34.381C25.1394 34.5219 24.8423 34.9115 24.8423 35.3579V36.4051C24.8423 37.0491 25.4439 37.5257 26.0612 37.342C35.9643 34.3947 41.9001 24.5863 39.419 14.778Z" stroke="#167FFC"/>
</svg>
