<svg width="64" height="44" viewBox="0 0 64 44" fill="none" xmlns="http://www.w3.org/2000/svg">
<path d="M50.2951 41.7596V37.3863C50.2951 35.0666 49.3371 32.8418 47.6318 31.2015C45.9265 29.5612 43.6137 28.6396 41.2021 28.6396H23.016C20.6044 28.6396 18.2915 29.5612 16.5863 31.2015C14.881 32.8418 13.923 35.0666 13.923 37.3863V41.7596" stroke="#167FFC" stroke-width="4" stroke-linecap="round" stroke-linejoin="round"/>
<path d="M32.1085 19.8932C37.1305 19.8932 41.2016 15.9772 41.2016 11.1466C41.2016 6.31592 37.1305 2.3999 32.1085 2.3999C27.0866 2.3999 23.0155 6.31592 23.0155 11.1466C23.0155 15.9772 27.0866 19.8932 32.1085 19.8932Z" stroke="#167FFC" stroke-width="4" stroke-linecap="round" stroke-linejoin="round"/>
<path d="M61.9382 41.76V37.3867C61.9367 35.4487 61.2661 33.5661 60.0318 32.0344C58.7974 30.5028 57.0692 29.4088 55.1184 28.9243" stroke="#167FFC" stroke-width="4" stroke-linecap="round" stroke-linejoin="round"/>
<path d="M46.0258 2.68408C47.9817 3.16581 49.7153 4.26001 50.9533 5.7942C52.1914 7.32838 52.8633 9.21528 52.8633 11.1574C52.8633 13.0995 52.1914 14.9864 50.9533 16.5206C49.7153 18.0548 47.9817 19.149 46.0258 19.6307" stroke="#167FFC" stroke-width="4" stroke-linecap="round" stroke-linejoin="round"/>
<path d="M2.61223 41.4754V37.102C2.61374 35.1641 3.28431 33.2814 4.51867 31.7498C5.75302 30.2181 7.48126 29.1241 9.43201 28.6396" stroke="#167FFC" stroke-width="4" stroke-linecap="round" stroke-linejoin="round"/>
<path d="M18.5247 2.3999C16.5687 2.88163 14.8351 3.97583 13.5971 5.51002C12.359 7.0442 11.6871 8.9311 11.6871 10.8732C11.6871 12.8154 12.359 14.7023 13.5971 16.2364C14.8351 17.7706 16.5687 18.8648 18.5247 19.3466" stroke="#167FFC" stroke-width="4" stroke-linecap="round" stroke-linejoin="round"/>
</svg>
