<svg width="150" height="36" viewBox="0 0 150 36" fill="none" xmlns="http://www.w3.org/2000/svg">
<path d="M16.4375 0.875H22.3438V24.8047C22.3438 28.0703 21.3203 30.6641 19.2734 32.5859C17.2422 34.5078 14.5547 35.4688 11.2109 35.4688C7.64844 35.4688 4.89844 34.5703 2.96094 32.7734C1.02344 30.9766 0.0546875 28.4766 0.0546875 25.2734H5.96094C5.96094 27.0859 6.40625 28.4531 7.29688 29.375C8.20312 30.2812 9.50781 30.7344 11.2109 30.7344C12.8047 30.7344 14.0703 30.2109 15.0078 29.1641C15.9609 28.1016 16.4375 26.6406 16.4375 24.7812V0.875Z" fill="#167FFC"/>
<path d="M47.7266 27.0547H34.5078L31.7422 35H25.5781L38.4688 0.875H43.7891L56.7031 35H50.5156L47.7266 27.0547ZM36.1719 22.2734H46.0625L41.1172 8.11719L36.1719 22.2734Z" fill="#167FFC"/>
<path d="M87.6641 35H81.7344L66.5234 10.7891V35H60.5938V0.875H66.5234L81.7812 25.1797V0.875H87.6641V35Z" fill="#167FFC"/>
<path d="M119.633 0.875V23.6797C119.633 27.3047 118.469 30.1797 116.141 32.3047C113.828 34.4141 110.742 35.4688 106.883 35.4688C102.977 35.4688 99.875 34.4297 97.5781 32.3516C95.2812 30.2578 94.1328 27.3594 94.1328 23.6562V0.875H100.039V23.7031C100.039 25.9844 100.617 27.7266 101.773 28.9297C102.93 30.1328 104.633 30.7344 106.883 30.7344C111.445 30.7344 113.727 28.3281 113.727 23.5156V0.875H119.633Z" fill="#167FFC"/>
<path d="M143.82 26.2109C143.82 24.7109 143.289 23.5547 142.227 22.7422C141.18 21.9297 139.281 21.1094 136.531 20.2812C133.781 19.4531 131.594 18.5312 129.969 17.5156C126.859 15.5625 125.305 13.0156 125.305 9.875C125.305 7.125 126.422 4.85938 128.656 3.07812C130.906 1.29688 133.82 0.40625 137.398 0.40625C139.773 0.40625 141.891 0.84375 143.75 1.71875C145.609 2.59375 147.07 3.84375 148.133 5.46875C149.195 7.07812 149.727 8.86719 149.727 10.8359H143.82C143.82 9.05469 143.258 7.66406 142.133 6.66406C141.023 5.64844 139.43 5.14062 137.352 5.14062C135.414 5.14062 133.906 5.55469 132.828 6.38281C131.766 7.21094 131.234 8.36719 131.234 9.85156C131.234 11.1016 131.812 12.1484 132.969 12.9922C134.125 13.8203 136.031 14.6328 138.688 15.4297C141.344 16.2109 143.477 17.1094 145.086 18.125C146.695 19.125 147.875 20.2812 148.625 21.5938C149.375 22.8906 149.75 24.4141 149.75 26.1641C149.75 29.0078 148.656 31.2734 146.469 32.9609C144.297 34.6328 141.344 35.4688 137.609 35.4688C135.141 35.4688 132.867 35.0156 130.789 34.1094C128.727 33.1875 127.117 31.9219 125.961 30.3125C124.82 28.7031 124.25 26.8281 124.25 24.6875H130.18C130.18 26.625 130.82 28.125 132.102 29.1875C133.383 30.25 135.219 30.7812 137.609 30.7812C139.672 30.7812 141.219 30.3672 142.25 29.5391C143.297 28.6953 143.82 27.5859 143.82 26.2109Z" fill="#167FFC"/>
</svg>
